<?xml version="1.0" encoding="UTF-8"?>
<svg xmlns="http://www.w3.org/2000/svg" viewBox="0 0 500 500" width="500" height="500">
  <defs>
    <pattern id="islamicPattern" patternUnits="userSpaceOnUse" width="100" height="100" patternTransform="scale(0.5)">
      <!-- Background -->
      <rect width="100" height="100" fill="#f8f9fa" />
      
      <!-- Base geometric pattern -->
      <path d="M0,50 L50,0 L100,50 L50,100 Z" fill="none" stroke="#0A6522" stroke-width="1" opacity="0.5" />
      <path d="M50,0 L100,50 L50,100 L0,50 Z" fill="none" stroke="#0A6522" stroke-width="1" opacity="0.5" />
      
      <!-- Star pattern -->
      <path d="M50,10 L55,30 L75,30 L60,45 L65,65 L50,55 L35,65 L40,45 L25,30 L45,30 Z" fill="none" stroke="#0A6522" stroke-width="1" opacity="0.7" />
      
      <!-- Central design -->
      <circle cx="50" cy="50" r="15" fill="none" stroke="#0A6522" stroke-width="1" opacity="0.6" />
      <circle cx="50" cy="50" r="7" fill="none" stroke="#0A6522" stroke-width="1" opacity="0.8" />
      
      <!-- Decorative elements -->
      <path d="M50,0 L50,15" stroke="#0A6522" stroke-width="0.5" opacity="0.5" />
      <path d="M50,85 L50,100" stroke="#0A6522" stroke-width="0.5" opacity="0.5" />
      <path d="M0,50 L15,50" stroke="#0A6522" stroke-width="0.5" opacity="0.5" />
      <path d="M85,50 L100,50" stroke="#0A6522" stroke-width="0.5" opacity="0.5" />
    </pattern>
  </defs>
  
  <rect width="100%" height="100%" fill="url(#islamicPattern)" />
</svg> 