<?xml version="1.0" encoding="UTF-8"?>
<svg width="1000" height="200" viewBox="0 0 1000 200" xmlns="http://www.w3.org/2000/svg">
  <defs>
    <pattern id="islamic-pattern" x="0" y="0" width="100" height="100" patternUnits="userSpaceOnUse">
      <!-- Basic Islamic pattern with 8-pointed stars -->
      <path d="M50,0 L60,20 L80,25 L60,30 L50,50 L40,30 L20,25 L40,20 Z" fill="#00843D" fill-opacity="0.15"/>
      <path d="M0,50 L20,60 L25,80 L30,60 L50,50 L30,40 L25,20 L20,40 Z" fill="#00843D" fill-opacity="0.15"/>
      <path d="M50,50 L60,70 L80,75 L60,80 L50,100 L40,80 L20,75 L40,70 Z" fill="#00843D" fill-opacity="0.15"/>
      <path d="M100,50 L80,60 L75,80 L70,60 L50,50 L70,40 L75,20 L80,40 Z" fill="#00843D" fill-opacity="0.15"/>
      
      <!-- Connecting lines -->
      <path d="M0,0 L100,100 M100,0 L0,100 M50,0 L50,100 M0,50 L100,50" stroke="#00843D" stroke-width="1" stroke-opacity="0.1"/>
      
      <!-- Circular elements -->
      <circle cx="50" cy="50" r="15" fill="none" stroke="#00843D" stroke-width="1" stroke-opacity="0.2"/>
      <circle cx="50" cy="50" r="25" fill="none" stroke="#00843D" stroke-width="1" stroke-opacity="0.1"/>
      
      <!-- Small decorative elements -->
      <circle cx="25" cy="25" r="3" fill="#FFD700" fill-opacity="0.2"/>
      <circle cx="75" cy="25" r="3" fill="#FFD700" fill-opacity="0.2"/>
      <circle cx="25" cy="75" r="3" fill="#FFD700" fill-opacity="0.2"/>
      <circle cx="75" cy="75" r="3" fill="#FFD700" fill-opacity="0.2"/>
    </pattern>
  </defs>
  
  <rect width="100%" height="100%" fill="url(#islamic-pattern)"/>
</svg> 