<svg width="127" height="127" viewBox="0 0 127 127" fill="none" xmlns="http://www.w3.org/2000/svg">
<path d="M63.5 0C28.428 0 0 28.428 0 63.5C0 98.572 28.428 127 63.5 127C98.572 127 127 98.572 127 63.5C127 28.428 98.572 0 63.5 0ZM66.8712 105.591V105.547C66.8712 104.623 66.1123 103.865 65.1883 103.865H61.812C60.888 103.865 60.1292 104.623 60.1292 105.547V105.591C60.1292 106.515 60.888 107.274 61.812 107.274H65.1883C66.1123 107.274 66.8712 106.515 66.8712 105.591ZM82.994 96.904H44.7843C43.4273 96.904 42.3236 95.8002 42.3236 94.4432V92.6903C42.3236 91.3336 43.4273 90.2295 44.7843 90.2295H82.994C84.3507 90.2295 85.4547 91.3336 85.4547 92.6903V94.4432C85.4547 95.8002 84.3507 96.904 82.994 96.904ZM89.0473 83.5554H38.6527C36.8999 83.5554 35.4794 82.1345 35.4794 80.3821V77.9214C35.4794 76.169 36.8999 74.748 38.6527 74.748H89.0473C90.7998 74.748 92.2207 76.169 92.2207 77.9214V80.3821C92.2207 82.1345 90.7998 83.5554 89.0473 83.5554ZM63.8591 54.5404C63.7704 54.5404 63.6821 54.5404 63.5934 54.5296C63.5047 54.5296 63.4164 54.5404 63.3277 54.5404C51.6598 54.4737 41.2781 45.6373 34.8927 38.5855C34.6926 42.1954 34.8038 45.1999 35.2359 47.4577C37.0554 57.1343 42.5461 64.2084 48.0592 69.5984C50.9527 72.4141 54.2176 74.7807 57.7724 76.6333C59.3043 77.4806 61.3761 78.4491 63.5934 78.4491C65.8106 78.4491 67.8825 77.4806 69.4148 76.6333C72.9696 74.7807 76.2345 72.4141 79.1276 69.5984C84.6407 64.2084 90.1318 57.1343 91.9513 47.4577C92.3829 45.1999 92.4942 42.1954 92.294 38.5855C85.9091 45.6373 75.5269 54.4737 63.8591 54.5404ZM63.5938 21.3135C63.5942 21.3135 63.5947 21.3135 63.5951 21.3135C69.8392 21.3135 73.6082 46.7415 73.6082 46.7415C73.6082 46.7415 69.8396 51.0769 63.5951 51.0769C57.3508 51.0769 53.582 46.7415 53.582 46.7415C53.582 46.7415 57.3508 21.3135 63.5951 21.3135H63.5938Z" fill="#FFFFFF"/>
</svg> 