<svg width="100" height="100" viewBox="0 0 100 100" fill="none" xmlns="http://www.w3.org/2000/svg">
  <path d="M10 10L20 20M30 30L40 40M50 50L60 60M70 70L80 80M90 90L100 100" stroke="white" stroke-width="1" stroke-linecap="round"/>
  <path d="M10 90L20 80M30 70L40 60M50 50L60 40M70 30L80 20M90 10L100 0" stroke="white" stroke-width="1" stroke-linecap="round"/>
  <circle cx="10" cy="10" r="2" fill="white"/>
  <circle cx="30" cy="30" r="2" fill="white"/>
  <circle cx="50" cy="50" r="2" fill="white"/>
  <circle cx="70" cy="70" r="2" fill="white"/>
  <circle cx="90" cy="90" r="2" fill="white"/>
  <circle cx="10" cy="90" r="2" fill="white"/>
  <circle cx="30" cy="70" r="2" fill="white"/>
  <circle cx="70" cy="30" r="2" fill="white"/>
  <circle cx="90" cy="10" r="2" fill="white"/>
</svg> 